<mxfile host="Electron" modified="2024-04-07T15:16:54.722Z" agent="Mozilla/5.0 (Windows NT 10.0; Win64; x64) AppleWebKit/537.36 (KHTML, like Gecko) draw.io/24.1.0 Chrome/120.0.6099.109 Electron/28.1.0 Safari/537.36" etag="6ctce9fH-gqbd91H_bEC" version="24.1.0" type="device">
  <diagram name="Seite-1" id="eYls12pk38ChyRsIaMzn">
    <mxGraphModel dx="762" dy="443" grid="1" gridSize="10" guides="1" tooltips="1" connect="1" arrows="1" fold="1" page="1" pageScale="1" pageWidth="1169" pageHeight="1654" math="0" shadow="0">
      <root>
        <mxCell id="0" />
        <mxCell id="1" parent="0" />
        <mxCell id="90ayUfb-X1jxF-5PFBxL-4" value="" style="rounded=0;whiteSpace=wrap;html=1;dashed=1;dashPattern=1 2;fillColor=#ffe6cc;strokeColor=#d79b00;" vertex="1" parent="1">
          <mxGeometry x="330" y="317.99" width="190" height="120" as="geometry" />
        </mxCell>
        <mxCell id="90ayUfb-X1jxF-5PFBxL-2" value="" style="edgeStyle=orthogonalEdgeStyle;rounded=0;orthogonalLoop=1;jettySize=auto;html=1;entryX=0.5;entryY=0;entryDx=0;entryDy=0;" edge="1" parent="1" source="fzVLtD4s_GmzEl5ITfrU-1" target="fzVLtD4s_GmzEl5ITfrU-2">
          <mxGeometry relative="1" as="geometry" />
        </mxCell>
        <mxCell id="fzVLtD4s_GmzEl5ITfrU-1" value="RMS Normalization" style="rounded=0;whiteSpace=wrap;html=1;fillColor=#e1d5e7;strokeColor=#9673a6;" parent="1" vertex="1">
          <mxGeometry x="340" y="327.99" width="170" height="20" as="geometry" />
        </mxCell>
        <mxCell id="90ayUfb-X1jxF-5PFBxL-3" value="" style="edgeStyle=orthogonalEdgeStyle;rounded=0;orthogonalLoop=1;jettySize=auto;html=1;" edge="1" parent="1" source="fzVLtD4s_GmzEl5ITfrU-2" target="fzVLtD4s_GmzEl5ITfrU-3">
          <mxGeometry relative="1" as="geometry" />
        </mxCell>
        <mxCell id="fzVLtD4s_GmzEl5ITfrU-2" value="fc" style="rounded=0;whiteSpace=wrap;html=1;fillColor=#e1d5e7;strokeColor=#9673a6;" parent="1" vertex="1">
          <mxGeometry x="340" y="367.99" width="170" height="20" as="geometry" />
        </mxCell>
        <mxCell id="90ayUfb-X1jxF-5PFBxL-7" value="" style="edgeStyle=orthogonalEdgeStyle;rounded=0;orthogonalLoop=1;jettySize=auto;html=1;" edge="1" parent="1" source="fzVLtD4s_GmzEl5ITfrU-3">
          <mxGeometry relative="1" as="geometry">
            <mxPoint x="425" y="447.99" as="targetPoint" />
          </mxGeometry>
        </mxCell>
        <mxCell id="fzVLtD4s_GmzEl5ITfrU-3" value="ReLU" style="rounded=0;whiteSpace=wrap;html=1;fillColor=#e1d5e7;strokeColor=#9673a6;" parent="1" vertex="1">
          <mxGeometry x="340" y="407.99" width="170" height="20" as="geometry" />
        </mxCell>
        <mxCell id="90ayUfb-X1jxF-5PFBxL-5" value="One Layer" style="text;html=1;align=center;verticalAlign=middle;whiteSpace=wrap;rounded=0;fontSize=14;fontStyle=1" vertex="1" parent="1">
          <mxGeometry x="382.5" y="277.99" width="85" height="30" as="geometry" />
        </mxCell>
        <mxCell id="90ayUfb-X1jxF-5PFBxL-8" value="" style="edgeStyle=orthogonalEdgeStyle;rounded=0;orthogonalLoop=1;jettySize=auto;html=1;entryX=0.5;entryY=0;entryDx=0;entryDy=0;" edge="1" parent="1">
          <mxGeometry relative="1" as="geometry">
            <mxPoint x="424.9" y="307.99" as="sourcePoint" />
            <mxPoint x="424.9" y="327.99" as="targetPoint" />
          </mxGeometry>
        </mxCell>
        <mxCell id="90ayUfb-X1jxF-5PFBxL-10" value="Layer 1" style="rounded=0;whiteSpace=wrap;html=1;fillColor=#ffe6cc;strokeColor=#d79b00;" vertex="1" parent="1">
          <mxGeometry x="150" y="330" width="120" height="20" as="geometry" />
        </mxCell>
        <mxCell id="90ayUfb-X1jxF-5PFBxL-12" style="edgeStyle=orthogonalEdgeStyle;rounded=0;orthogonalLoop=1;jettySize=auto;html=1;entryX=0.498;entryY=-0.038;entryDx=0;entryDy=0;startArrow=none;startFill=0;entryPerimeter=0;" edge="1" parent="1" target="90ayUfb-X1jxF-5PFBxL-10">
          <mxGeometry relative="1" as="geometry">
            <mxPoint x="209.9546511627907" y="310" as="sourcePoint" />
            <mxPoint x="209.95" y="340" as="targetPoint" />
          </mxGeometry>
        </mxCell>
        <mxCell id="90ayUfb-X1jxF-5PFBxL-11" value="flatten" style="rounded=0;whiteSpace=wrap;html=1;fillColor=#f5f5f5;strokeColor=#666666;fontColor=#333333;" vertex="1" parent="1">
          <mxGeometry x="150" y="290" width="120" height="20" as="geometry" />
        </mxCell>
        <mxCell id="90ayUfb-X1jxF-5PFBxL-14" value="256" style="text;html=1;align=center;verticalAlign=middle;whiteSpace=wrap;rounded=0;fontStyle=2" vertex="1" parent="1">
          <mxGeometry x="216" y="310" width="30" height="15" as="geometry" />
        </mxCell>
        <mxCell id="90ayUfb-X1jxF-5PFBxL-16" style="edgeStyle=orthogonalEdgeStyle;rounded=0;orthogonalLoop=1;jettySize=auto;html=1;entryX=0.498;entryY=-0.038;entryDx=0;entryDy=0;startArrow=none;startFill=0;entryPerimeter=0;" edge="1" parent="1">
          <mxGeometry relative="1" as="geometry">
            <mxPoint x="210" y="270" as="sourcePoint" />
            <mxPoint x="209.98" y="290" as="targetPoint" />
          </mxGeometry>
        </mxCell>
        <mxCell id="90ayUfb-X1jxF-5PFBxL-17" value="16x16" style="text;html=1;align=center;verticalAlign=middle;whiteSpace=wrap;rounded=0;fontStyle=2" vertex="1" parent="1">
          <mxGeometry x="216" y="271" width="30" height="15" as="geometry" />
        </mxCell>
        <mxCell id="90ayUfb-X1jxF-5PFBxL-20" value="Layer 2" style="rounded=0;whiteSpace=wrap;html=1;fillColor=#ffe6cc;strokeColor=#d79b00;" vertex="1" parent="1">
          <mxGeometry x="150" y="370" width="120" height="20" as="geometry" />
        </mxCell>
        <mxCell id="90ayUfb-X1jxF-5PFBxL-21" style="edgeStyle=orthogonalEdgeStyle;rounded=0;orthogonalLoop=1;jettySize=auto;html=1;entryX=0.498;entryY=-0.038;entryDx=0;entryDy=0;startArrow=none;startFill=0;entryPerimeter=0;" edge="1" parent="1" target="90ayUfb-X1jxF-5PFBxL-20">
          <mxGeometry relative="1" as="geometry">
            <mxPoint x="209.9546511627907" y="350" as="sourcePoint" />
            <mxPoint x="209.95" y="380" as="targetPoint" />
          </mxGeometry>
        </mxCell>
        <mxCell id="90ayUfb-X1jxF-5PFBxL-22" value="w1" style="text;html=1;align=center;verticalAlign=middle;whiteSpace=wrap;rounded=0;fontStyle=2" vertex="1" parent="1">
          <mxGeometry x="216" y="350" width="30" height="15" as="geometry" />
        </mxCell>
        <mxCell id="90ayUfb-X1jxF-5PFBxL-23" value="Layer 3" style="rounded=0;whiteSpace=wrap;html=1;fillColor=#ffe6cc;strokeColor=#d79b00;" vertex="1" parent="1">
          <mxGeometry x="150" y="410" width="120" height="20" as="geometry" />
        </mxCell>
        <mxCell id="90ayUfb-X1jxF-5PFBxL-24" style="edgeStyle=orthogonalEdgeStyle;rounded=0;orthogonalLoop=1;jettySize=auto;html=1;entryX=0.498;entryY=-0.038;entryDx=0;entryDy=0;startArrow=none;startFill=0;entryPerimeter=0;" edge="1" parent="1" target="90ayUfb-X1jxF-5PFBxL-23">
          <mxGeometry relative="1" as="geometry">
            <mxPoint x="209.9546511627907" y="390" as="sourcePoint" />
            <mxPoint x="209.95" y="420" as="targetPoint" />
          </mxGeometry>
        </mxCell>
        <mxCell id="90ayUfb-X1jxF-5PFBxL-25" value="w2" style="text;html=1;align=center;verticalAlign=middle;whiteSpace=wrap;rounded=0;fontStyle=2" vertex="1" parent="1">
          <mxGeometry x="216" y="393" width="30" height="15" as="geometry" />
        </mxCell>
        <mxCell id="90ayUfb-X1jxF-5PFBxL-35" style="edgeStyle=orthogonalEdgeStyle;rounded=0;orthogonalLoop=1;jettySize=auto;html=1;entryX=0.5;entryY=0;entryDx=0;entryDy=0;" edge="1" parent="1" source="90ayUfb-X1jxF-5PFBxL-26" target="90ayUfb-X1jxF-5PFBxL-30">
          <mxGeometry relative="1" as="geometry" />
        </mxCell>
        <mxCell id="90ayUfb-X1jxF-5PFBxL-26" value="Last layer (No ReLU)" style="rounded=0;whiteSpace=wrap;html=1;fillColor=#ffe6cc;strokeColor=#d79b00;" vertex="1" parent="1">
          <mxGeometry x="150" y="450" width="120" height="20" as="geometry" />
        </mxCell>
        <mxCell id="90ayUfb-X1jxF-5PFBxL-27" style="edgeStyle=orthogonalEdgeStyle;rounded=0;orthogonalLoop=1;jettySize=auto;html=1;entryX=0.498;entryY=-0.038;entryDx=0;entryDy=0;startArrow=none;startFill=0;entryPerimeter=0;" edge="1" parent="1" target="90ayUfb-X1jxF-5PFBxL-26">
          <mxGeometry relative="1" as="geometry">
            <mxPoint x="209.9546511627907" y="430" as="sourcePoint" />
            <mxPoint x="209.95" y="460" as="targetPoint" />
          </mxGeometry>
        </mxCell>
        <mxCell id="90ayUfb-X1jxF-5PFBxL-28" value="w3" style="text;html=1;align=center;verticalAlign=middle;whiteSpace=wrap;rounded=0;fontStyle=2" vertex="1" parent="1">
          <mxGeometry x="216" y="433" width="30" height="15" as="geometry" />
        </mxCell>
        <mxCell id="90ayUfb-X1jxF-5PFBxL-30" value="Classifier (max)" style="rounded=0;whiteSpace=wrap;html=1;fillColor=#f5f5f5;strokeColor=#666666;fontColor=#333333;" vertex="1" parent="1">
          <mxGeometry x="150" y="490" width="120" height="20" as="geometry" />
        </mxCell>
        <mxCell id="90ayUfb-X1jxF-5PFBxL-36" value="10" style="text;html=1;align=center;verticalAlign=middle;whiteSpace=wrap;rounded=0;fontStyle=2" vertex="1" parent="1">
          <mxGeometry x="215" y="472" width="30" height="15" as="geometry" />
        </mxCell>
        <mxCell id="90ayUfb-X1jxF-5PFBxL-37" value="out: class prediction" style="text;html=1;align=center;verticalAlign=middle;whiteSpace=wrap;rounded=0;fontStyle=2;fontSize=8;" vertex="1" parent="1">
          <mxGeometry x="150" y="510" width="120" height="15" as="geometry" />
        </mxCell>
        <mxCell id="90ayUfb-X1jxF-5PFBxL-38" value="in: greyscale image" style="text;html=1;align=center;verticalAlign=middle;whiteSpace=wrap;rounded=0;fontStyle=2;fontSize=8;" vertex="1" parent="1">
          <mxGeometry x="150" y="255" width="120" height="15" as="geometry" />
        </mxCell>
        <mxCell id="90ayUfb-X1jxF-5PFBxL-39" value="Model Structure" style="text;html=1;align=center;verticalAlign=middle;whiteSpace=wrap;rounded=0;fontSize=14;fontStyle=1" vertex="1" parent="1">
          <mxGeometry x="144" y="230" width="132.5" height="30" as="geometry" />
        </mxCell>
        <mxCell id="90ayUfb-X1jxF-5PFBxL-40" value="" style="endArrow=none;html=1;strokeWidth=1;rounded=0;entryX=0;entryY=0;entryDx=0;entryDy=0;dashed=1;strokeColor=#696969;" edge="1" parent="1" target="90ayUfb-X1jxF-5PFBxL-4">
          <mxGeometry width="50" height="50" relative="1" as="geometry">
            <mxPoint x="270" y="370" as="sourcePoint" />
            <mxPoint x="320" y="320" as="targetPoint" />
          </mxGeometry>
        </mxCell>
        <mxCell id="90ayUfb-X1jxF-5PFBxL-41" value="" style="endArrow=none;html=1;strokeWidth=1;rounded=0;entryX=0;entryY=1;entryDx=0;entryDy=0;dashed=1;strokeColor=#696969;" edge="1" parent="1" target="90ayUfb-X1jxF-5PFBxL-4">
          <mxGeometry width="50" height="50" relative="1" as="geometry">
            <mxPoint x="270" y="390" as="sourcePoint" />
            <mxPoint x="330" y="355" as="targetPoint" />
          </mxGeometry>
        </mxCell>
      </root>
    </mxGraphModel>
  </diagram>
</mxfile>
